<svg width="14" height="14" viewBox="0 0 14 14" fill="none" xmlns="http://www.w3.org/2000/svg">
<g clip-path="url(#clip0_2193_37341)">
<path d="M10.9259 3.62305L12.0051 5.41388C12.1567 5.68805 12.2442 5.9972 12.2501 6.3122V10.203C12.2501 10.7455 12.0342 11.2647 11.6551 11.6439C11.2701 12.0289 10.7509 12.2389 10.2142 12.2447H3.80339C3.26089 12.2447 2.74172 12.0289 2.36255 11.6439C1.98338 11.2589 1.76755 10.7455 1.76172 10.203V6.3122C1.77922 5.9972 1.86673 5.68805 2.01257 5.41388L3.09172 3.62305" stroke="#6B50E6" stroke-miterlimit="10" stroke-linecap="round"/>
<path d="M1.75 6.41602L4.12417 6.88851C4.2875 6.92935 4.43333 7.01103 4.54999 7.12186C4.66666 7.2327 4.75417 7.37851 4.80084 7.53601L4.97583 8.22434C5.06917 8.5335 5.25583 8.80768 5.50667 9.00602C5.7575 9.20435 6.07249 9.31518 6.39333 9.32684H7.61833C7.93917 9.31518 8.24834 9.19851 8.49917 9.00018C8.75 8.80185 8.94251 8.52767 9.03001 8.22434L9.205 7.53601C9.25167 7.37851 9.33916 7.23853 9.45583 7.12186C9.57249 7.01103 9.71833 6.92935 9.88167 6.88851L12.1625 6.43353" stroke="#6B50E6" stroke-miterlimit="10" stroke-linecap="round"/>
<path d="M7 1.75V6.41667" stroke="#6B50E6" stroke-miterlimit="10" stroke-linecap="round"/>
<path d="M8.75 3.5L7 1.75L5.25 3.5" stroke="#6B50E6" stroke-linecap="round" stroke-linejoin="round"/>
</g>
<defs>
<clipPath id="clip0_2193_37341">
<rect width="14" height="14" fill="white"/>
</clipPath>
</defs>
</svg>
