<svg width="14" height="14" viewBox="0 0 14 14" fill="none" xmlns="http://www.w3.org/2000/svg">
<g clip-path="url(#clip0_2193_37303)">
<path d="M10.2025 11.6673H3.78583C3.24333 11.6673 2.72416 11.4515 2.34499 11.0665C1.95999 10.6815 1.75 10.1623 1.75 9.61981V5.73483C1.76167 5.41983 1.84917 5.11064 1.99501 4.83647L3.07416 3.04563C3.21416 2.84147 3.39501 2.66648 3.61667 2.54398C3.83251 2.42148 4.07167 2.35148 4.3225 2.33398H9.66584C9.91084 2.34565 10.1617 2.41564 10.3775 2.54398C10.5933 2.66648 10.78 2.84147 10.92 3.04563L11.9992 4.83647C12.1567 5.11064 12.2442 5.41983 12.25 5.73483V9.61981C12.25 10.1623 12.0342 10.6815 11.6492 11.0665C11.2642 11.4515 10.7508 11.6673 10.2083 11.6673H10.2025Z" stroke="#6B50E6" strokeMiterlimit="10" strokeLinecap="round"/>
<path d="M1.75 5.83398L4.12417 6.30648C4.28167 6.34732 4.4275 6.42897 4.54417 6.54563C4.66084 6.65647 4.74833 6.79647 4.795 6.95397L4.96999 7.64814C5.06916 7.95148 5.25583 8.21981 5.50667 8.41231C5.7575 8.60481 6.06667 8.71566 6.38167 8.72733H7.60083C7.91583 8.71566 8.225 8.61064 8.47583 8.41231C8.7325 8.21981 8.91917 7.95148 9.01251 7.64814L9.1875 6.95397C9.23417 6.79647 9.3275 6.65647 9.44417 6.54563C9.56083 6.4348 9.70667 6.35316 9.86417 6.31232L12.2383 5.83982" stroke="#6B50E6" strokeMiterlimit="10" strokeLinecap="round"/>
</g>
<defs>
<clipPath id="clip0_2193_37303">
<rect width="14" height="14" fill="white"/>
</clipPath>
</defs>
</svg>
