<svg width="14" height="14" viewBox="0 0 14 14" fill="none" xmlns="http://www.w3.org/2000/svg">
<path d="M6.99872 0.342773C3.31684 0.342773 0.332031 3.32745 0.332031 7.00946C0.332031 10.6915 3.31684 13.6761 6.99872 13.6761C10.6806 13.6761 13.6654 10.6915 13.6654 7.00946C13.6654 3.32745 10.6806 0.342773 6.99872 0.342773ZM6.99872 3.67612C7.36692 3.67612 7.66539 3.97478 7.66539 4.34278C7.66539 4.71079 7.36692 5.00945 6.99872 5.00945C6.63052 5.00945 6.33205 4.71079 6.33205 4.34278C6.33205 3.97478 6.63052 3.67612 6.99872 3.67612ZM6.99872 5.67612C7.36692 5.67612 7.66539 5.97479 7.66539 6.34279V9.67613C7.66539 10.0441 7.36692 10.3428 6.99872 10.3428C6.63052 10.3428 6.33205 10.0441 6.33205 9.67613V6.34279C6.33205 5.97479 6.63052 5.67612 6.99872 5.67612Z" fill="#BFB8DE"/>
</svg>
