<svg width="21" height="20" viewBox="0 0 21 20" fill="none" xmlns="http://www.w3.org/2000/svg">
<path d="M13.2049 5.14844H7.79688V14.8669H13.2049V5.14844Z" fill="#ACA6C8"/>
<path d="M8.13948 10.0088C8.13862 9.07282 8.35072 8.14894 8.75971 7.30707C9.16869 6.4652 9.76385 5.72741 10.5001 5.14955C9.58835 4.43288 8.49334 3.98719 7.34024 3.86342C6.18714 3.73966 5.02249 3.94282 3.97939 4.44968C2.9363 4.95653 2.05685 5.74664 1.44157 6.72969C0.826288 7.71274 0.5 8.84906 0.5 10.0088C0.5 11.1685 0.826288 12.3048 1.44157 13.2879C2.05685 14.2709 2.9363 15.061 3.97939 15.5679C5.02249 16.0747 6.18714 16.2779 7.34024 16.1541C8.49334 16.0304 9.58835 15.5847 10.5001 14.868C9.76385 14.2902 9.1687 13.5524 8.75971 12.7105C8.35072 11.8686 8.13863 10.9447 8.13948 10.0088Z" fill="#86819B"/>
<path d="M20.4998 10.0088C20.4999 11.1685 20.1736 12.3048 19.5584 13.2879C18.9431 14.2709 18.0637 15.061 17.0206 15.5679C15.9775 16.0747 14.8129 16.2779 13.6598 16.1541C12.5067 16.0304 11.4117 15.5847 10.5 14.868C11.2356 14.2896 11.8303 13.5517 12.2392 12.7099C12.6482 11.8682 12.8606 10.9446 12.8606 10.0088C12.8606 9.07297 12.6482 8.14938 12.2392 7.30764C11.8303 6.4659 11.2356 5.72799 10.5 5.14955C11.4117 4.43287 12.5067 3.98718 13.6598 3.86342C14.8129 3.73966 15.9775 3.94282 17.0206 4.44969C18.0637 4.95655 18.9431 5.74666 19.5584 6.72971C20.1736 7.71276 20.4999 8.84907 20.4998 10.0088Z" fill="#9993B2"/>
<path d="M19.9092 13.8376V13.6386H19.9895V13.5981H19.7852V13.6386H19.8654V13.8376H19.9092ZM20.3059 13.8376V13.5977H20.2433L20.1713 13.7627L20.0992 13.5977H20.0365V13.8376H20.0808V13.6566L20.1483 13.8126H20.1942L20.2617 13.6562V13.8376H20.3059Z" fill="#F79E1B"/>
</svg>
