<svg width="20" height="10" viewBox="0 0 20 10" fill="none" xmlns="http://www.w3.org/2000/svg">
<path d="M5.41828 0H1.96909C1.7336 0 1.5329 0.171451 1.49608 0.404423L0.101277 9.24778C0.0735426 9.42226 0.208689 9.57959 0.384678 9.57959H2.15466C2.31905 9.57959 2.45974 9.45958 2.48546 9.29619L2.88131 6.78947C2.91762 6.556 3.11882 6.38454 3.35432 6.38454H4.44555C6.71779 6.38454 8.02838 5.28524 8.37128 3.1068C8.52609 2.15373 8.37733 1.40489 7.93106 0.880453C7.44141 0.304578 6.57255 0 5.41828 0ZM5.81615 3.22984C5.62806 4.46732 4.68256 4.46732 3.76782 4.46732H3.24792L3.61351 2.15625C3.63519 2.01657 3.75521 1.9137 3.89691 1.9137H4.13543C4.75769 1.9137 5.34567 1.9137 5.64924 2.2687C5.83027 2.4805 5.88524 2.79516 5.81615 3.22984Z" fill="#ACA6C8"/>
<path d="M15.7269 3.19047H14.0765C13.9348 3.19047 13.8142 3.29334 13.793 3.43302L13.7199 3.89493L13.6039 3.72752C13.2464 3.20862 12.4497 3.03516 11.6539 3.03516C9.82899 3.03516 8.2708 4.41736 7.96723 6.35627C7.8099 7.32346 8.03329 8.24829 8.58194 8.89325C9.0862 9.48627 9.80529 9.73336 10.662 9.73336C12.1325 9.73336 12.9479 8.78785 12.9479 8.78785L12.8743 9.24674C12.8465 9.42222 12.9817 9.57956 13.1587 9.57956H14.6458C14.8813 9.57956 15.082 9.4081 15.1188 9.17463L16.0118 3.52228C16.0391 3.34831 15.9039 3.19047 15.7269 3.19047ZM13.4249 6.40468C13.2666 7.34817 12.5167 7.98153 11.5617 7.98153C11.0831 7.98153 10.6989 7.82773 10.4528 7.53626C10.2087 7.24681 10.1169 6.83482 10.1936 6.37594C10.3433 5.44052 11.1038 4.78648 12.0442 4.78648C12.5132 4.78648 12.8944 4.9423 13.1456 5.23629C13.3982 5.5333 13.4981 5.94781 13.4249 6.40468Z" fill="#ACA6C8"/>
<path d="M17.6769 0.243057L16.2614 9.24829C16.2337 9.42277 16.3688 9.5801 16.5448 9.5801H17.9679C18.2044 9.5801 18.4051 9.40865 18.4414 9.17517L19.8372 0.332313C19.8649 0.157836 19.7298 0 19.5538 0H17.9603C17.8196 0.000504269 17.6986 0.103375 17.6769 0.243057Z" fill="#ACA6C8"/>
</svg>
