<svg width="26" height="12" viewBox="0 0 26 12" fill="none" xmlns="http://www.w3.org/2000/svg">
<path d="M5.82063 0H2.37194C2.13594 0 1.93524 0.171451 1.89843 0.404423L0.50362 9.24778C0.475886 9.42226 0.611029 9.57959 0.788028 9.57959H2.43446C2.67046 9.57959 2.87116 9.40814 2.90797 9.17466L3.28416 6.78947C3.32047 6.556 3.52167 6.38454 3.75716 6.38454H4.8489C7.12064 6.38454 8.43173 5.28524 8.77413 3.1068C8.92844 2.15373 8.78069 1.40489 8.33441 0.880453C7.84426 0.304578 6.9749 0 5.82063 0ZM6.2185 3.22984C6.0299 4.46732 5.0844 4.46732 4.17016 4.46732H3.64975L4.01484 2.15625C4.03653 2.01657 4.15755 1.9137 4.29875 1.9137H4.53727C5.16004 1.9137 5.74751 1.9137 6.05108 2.2687C6.23211 2.4805 6.28758 2.79516 6.2185 3.22984Z" fill="#86819B"/>
<path d="M16.1314 3.19047H14.4799C14.3393 3.19047 14.2177 3.29334 14.196 3.43302L14.1229 3.89493L14.0074 3.72752C13.6499 3.20862 12.8527 3.03516 12.0569 3.03516C10.232 3.03516 8.67329 4.41736 8.36972 6.35627C8.21188 7.32346 8.43628 8.24829 8.98492 8.89325C9.48818 9.48627 10.2083 9.73336 11.065 9.73336C12.5355 9.73336 13.3509 8.78785 13.3509 8.78785L13.2773 9.24674C13.2495 9.42222 13.3847 9.57956 13.5607 9.57956H15.0483C15.2848 9.57956 15.4844 9.4081 15.5218 9.17463L16.4143 3.52228C16.4426 3.34831 16.3079 3.19047 16.1314 3.19047ZM13.8294 6.40468C13.6701 7.34817 12.9212 7.98153 11.9662 7.98153C11.4866 7.98153 11.1034 7.82773 10.8573 7.53626C10.6132 7.24681 10.5204 6.83482 10.5981 6.37594C10.7468 5.44052 11.5083 4.78648 12.4487 4.78648C12.9177 4.78648 13.2989 4.9423 13.5501 5.23629C13.8017 5.5333 13.9015 5.94781 13.8294 6.40468Z" fill="#86819B"/>
<path d="M24.9249 3.18945H23.2654C23.107 3.18945 22.9583 3.26812 22.8685 3.39973L20.5796 6.77127L19.6094 3.53135C19.5484 3.32863 19.3613 3.18945 19.1495 3.18945H17.5187C17.3205 3.18945 17.1829 3.38309 17.2459 3.56967L19.0739 8.93408L17.3553 11.3601C17.2202 11.5512 17.3563 11.814 17.5898 11.814H19.2474C19.4047 11.814 19.5519 11.7373 19.6412 11.6082L25.1609 3.64077C25.293 3.45016 25.1574 3.18945 24.9249 3.18945Z" fill="#86819B"/>
</svg>
