<svg width="38" height="34" viewBox="0 0 38 34" fill="none" xmlns="http://www.w3.org/2000/svg">
<rect width="38" height="34" rx="17" fill="white"/>
<path d="M14.75 16.7525H21.1L18.62 14.2925C18.33 13.9925 18.33 13.5225 18.62 13.2225C18.91 12.9325 19.39 12.9325 19.68 13.2225L23.45 16.9725C23.73 17.2525 23.73 17.7525 23.45 18.0325L19.68 21.7825C19.39 22.0725 18.91 22.0725 18.62 21.7825C18.48 21.6325 18.4 21.4415 18.4 21.2525C18.4 21.0625 18.48 20.8625 18.62 20.7225L21.1 18.2525H14.75C14.33 18.2525 14 17.9225 14 17.5025C14 17.0925 14.33 16.7525 14.75 16.7525Z" fill="#0D0D0F"/>
</svg>
