<svg width="21" height="20" viewBox="0 0 21 20" fill="none" xmlns="http://www.w3.org/2000/svg">
<path d="M10.4027 6.8719L9.06653 13.1187H7.45034L8.78665 6.8719H10.4027ZM17.2019 10.9056L18.0525 8.55975L18.542 10.9056H17.2019ZM19.0056 13.1187H20.5L19.1945 6.8719H17.816C17.5053 6.8719 17.2435 7.05202 17.1275 7.32979L14.7026 13.1187H16.3999L16.7368 12.1858H18.8099L19.0056 13.1187ZM14.7868 11.0794C14.7938 9.43072 12.5077 9.33939 12.523 8.60274C12.5279 8.37892 12.7415 8.14049 13.2082 8.07951C13.4396 8.04973 14.0782 8.02556 14.8021 8.35911L15.0852 7.0339C14.6964 6.89326 14.1961 6.75781 13.5735 6.75781C11.9759 6.75781 10.852 7.60644 10.843 8.82263C10.8328 9.72198 11.6459 10.2234 12.2572 10.523C12.8875 10.8291 13.0987 11.0254 13.0956 11.299C13.0912 11.7181 12.593 11.9037 12.129 11.9107C11.3161 11.9234 10.8449 11.691 10.4693 11.5159L10.1759 12.8854C10.5542 13.0585 11.2511 13.2091 11.9727 13.2168C13.6712 13.2168 14.7817 12.3782 14.7868 11.0794ZM8.09342 6.8719L5.47489 13.1187H3.76681L2.47812 8.13332C2.40001 7.82675 2.33186 7.71407 2.09427 7.58452C1.70565 7.37349 1.06411 7.17609 0.5 7.05329L0.538217 6.8719H3.28812C3.63839 6.8719 3.95353 7.10499 4.03376 7.50851L4.71449 11.1236L6.39559 6.8719H8.09342Z" fill="#86819B"/>
</svg>
