<svg width="23" height="25" viewBox="0 0 23 25" fill="none" xmlns="http://www.w3.org/2000/svg">
<path d="M7.80609 4.10703L7.96609 4.18703C8.61276 4.52036 9.13943 5.04703 9.47276 5.6937L9.55276 5.8537C9.87276 6.48703 10.7794 6.48703 11.1061 5.8537L11.1861 5.6937C11.5194 5.04703 12.0461 4.52036 12.6928 4.18703L12.8528 4.10703C13.4861 3.78703 13.4861 2.88036 12.8528 2.5537L12.6928 2.4737C12.0461 2.14036 11.5194 1.6137 11.1861 0.967031L11.1061 0.807031C10.7861 0.173698 9.87943 0.173698 9.55276 0.807031L9.47276 0.967031C9.13943 1.6137 8.61276 2.14036 7.96609 2.4737L7.80609 2.5537C7.17276 2.8737 7.17276 3.78036 7.80609 4.10703Z" fill="white"/>
<path d="M9.06609 10.3537C9.71943 10.0204 9.71943 9.0937 9.06609 8.76036L8.09276 8.26036C7.22609 7.8137 6.51943 7.10703 6.07276 6.24037L5.57276 5.26703C5.23943 4.6137 4.31276 4.6137 3.97943 5.26703L3.47943 6.24037C3.03276 7.10703 2.32609 7.8137 1.45943 8.26036L0.486094 8.76036C-0.16724 9.0937 -0.16724 10.0204 0.486094 10.3537L1.45943 10.8537C2.32609 11.3004 3.03276 12.007 3.47943 12.8737L3.97943 13.847C4.31276 14.5004 5.23943 14.5004 5.57276 13.847L6.07276 12.8737C6.51943 12.007 7.22609 11.3004 8.09276 10.8537L9.06609 10.3537Z" fill="white"/>
<path d="M21.5728 14.3404L20.5861 13.8337C19.3928 13.227 18.4394 12.2737 17.8328 11.0804L17.3261 10.0937C16.8794 9.2137 15.9861 8.66703 14.9994 8.66703C14.0128 8.66703 13.1194 9.2137 12.6728 10.0937L12.1661 11.0804C11.5594 12.2737 10.6061 13.227 9.41276 13.8337L8.42609 14.3404C7.54609 14.787 6.99943 15.6804 6.99943 16.667C6.99943 17.6537 7.54609 18.547 8.42609 18.9937L9.41276 19.5004C10.6061 20.107 11.5594 21.0604 12.1661 22.2537L12.6728 23.2404C13.1194 24.1204 14.0128 24.667 14.9994 24.667C15.9861 24.667 16.8794 24.1204 17.3261 23.2404L17.8328 22.2537C18.4394 21.0604 19.3928 20.107 20.5861 19.5004L21.5728 18.9937C22.4528 18.547 22.9994 17.6537 22.9994 16.667C22.9994 15.6804 22.4528 14.787 21.5728 14.3404ZM20.6661 17.2137L19.6794 17.7204C18.1061 18.5204 16.8528 19.7737 16.0528 21.347L15.5461 22.3337C15.3928 22.6337 15.1128 22.667 14.9994 22.667C14.8861 22.667 14.6061 22.6337 14.4528 22.3337L13.9461 21.347C13.1461 19.7737 11.8928 18.5204 10.3194 17.7204L9.33276 17.2137C9.03276 17.0604 8.99943 16.7804 8.99943 16.667C8.99943 16.5537 9.03276 16.2737 9.33276 16.1204L10.3194 15.6137C11.8928 14.8137 13.1461 13.5604 13.9461 11.987L14.4528 11.0004C14.6061 10.7004 14.8861 10.667 14.9994 10.667C15.1128 10.667 15.3928 10.7004 15.5461 11.0004L16.0528 11.987C16.8528 13.5604 18.1061 14.8137 19.6794 15.6137L20.6661 16.1204C20.9661 16.2737 20.9994 16.5537 20.9994 16.667C20.9994 16.7804 20.9661 17.0604 20.6661 17.2137Z" fill="white"/>
</svg>
