<svg width="17" height="16" viewBox="0 0 17 16" fill="none" xmlns="http://www.w3.org/2000/svg">
<path fill-rule="evenodd" clip-rule="evenodd" d="M6.5789 10.7098C7.09929 11.0626 7.73352 11.2759 8.40841 11.2759C10.1973 11.2759 11.6527 9.80736 11.6527 8.00243C11.6527 7.32147 11.4413 6.68154 11.0917 6.15647L10.2054 7.05073C10.3518 7.32968 10.4331 7.65785 10.4331 8.00243C10.4331 9.12641 9.52238 10.0453 8.40841 10.0453C8.0669 10.0453 7.74165 9.96324 7.46519 9.81556L6.5789 10.7098ZM13.7668 3.45728C14.9459 4.54024 15.946 6.00059 16.6941 7.7563C16.7591 7.91218 16.7591 8.09267 16.6941 8.24035C14.954 12.3261 11.856 14.7709 8.40841 14.7709H8.40028C6.83096 14.7709 5.3267 14.2541 4.00132 13.3106L2.42388 14.9022C2.30191 15.0253 2.14742 15.0827 1.99293 15.0827C1.83844 15.0827 1.67581 15.0253 1.56198 14.9022C1.3587 14.6971 1.32617 14.3689 1.4888 14.131L1.51319 14.0982L13.5392 1.96411C13.5554 1.9477 13.5717 1.93129 13.5798 1.91488L13.5798 1.91488C13.5961 1.89847 13.6123 1.88206 13.6205 1.86566L14.3848 1.09446C14.6287 0.856535 15.0109 0.856535 15.2467 1.09446C15.4906 1.33238 15.4906 1.72618 15.2467 1.96411L13.7668 3.45728ZM5.15814 8.00563C5.15814 8.21894 5.18254 8.43225 5.21506 8.62915L2.20653 11.6647C1.39342 10.713 0.686008 9.56443 0.124959 8.24355C0.0599096 8.09587 0.0599096 7.91538 0.124959 7.7595C1.86503 3.67379 4.96299 1.23713 8.40247 1.23713H8.4106C9.57336 1.23713 10.7036 1.51607 11.7444 2.04114L9.02857 4.78136C8.83342 4.74854 8.62201 4.72393 8.4106 4.72393C6.61362 4.72393 5.15814 6.19249 5.15814 8.00563Z" fill="#D9D4EB"/>
</svg>
