<svg width="23" height="22" viewBox="0 0 23 22" fill="none" xmlns="http://www.w3.org/2000/svg">
<path fill-rule="evenodd" clip-rule="evenodd" d="M22.06 11.25C22.06 10.47 21.99 9.72 21.86 9H11.5V13.255H17.42C17.165 14.63 16.39 15.795 15.225 16.575V19.335H18.78C20.86 17.42 22.06 14.6 22.06 11.25Z" fill="#6B50E6"/>
<path fill-rule="evenodd" clip-rule="evenodd" d="M11.4999 21.9998C14.4699 21.9998 16.9599 21.0148 18.7799 19.3348L15.2249 16.5748C14.2399 17.2348 12.9799 17.6248 11.4999 17.6248C8.63492 17.6248 6.20992 15.6898 5.34492 13.0898H1.66992V15.9398C3.47992 19.5348 7.19992 21.9998 11.4999 21.9998Z" fill="#6B50E6"/>
<path fill-rule="evenodd" clip-rule="evenodd" d="M5.345 13.0901C5.125 12.4301 5 11.7251 5 11.0001C5 10.2751 5.125 9.57006 5.345 8.91006V6.06006H1.67C0.925 7.54506 0.5 9.22506 0.5 11.0001C0.5 12.7751 0.925 14.4551 1.67 15.9401L5.345 13.0901Z" fill="#6B50E6"/>
<path fill-rule="evenodd" clip-rule="evenodd" d="M11.4999 4.375C13.1149 4.375 14.5649 4.93 15.7049 6.02L18.8599 2.865C16.9549 1.09 14.4649 0 11.4999 0C7.19992 0 3.47992 2.465 1.66992 6.06L5.34492 8.91C6.20992 6.31 8.63492 4.375 11.4999 4.375Z" fill="#6B50E6"/>
</svg>
