<svg width="420" height="255" viewBox="0 0 420 255" fill="none" xmlns="http://www.w3.org/2000/svg">
<g opacity="0.03">
<path d="M151.074 12.3019L120.922 4.65456C109.985 1.88068 101.901 6.32715 98.9611 16.7135L89.003 51.8907C86.0146 62.4473 90.7051 69.9877 101.642 72.7616L131.794 80.4089C142.908 83.2275 150.773 78.8716 153.761 68.315L163.72 33.1378C166.66 22.7514 162.188 15.1205 151.074 12.3019Z" fill="url(#paint0_linear_1650_32428)"/>
<g opacity="0.5" filter="url(#filter0_f_1650_32428)">
<path d="M143.196 21.9348L122.653 16.7246C115.202 14.8347 109.694 17.8641 107.691 24.9404L100.906 48.9071C98.8704 56.0994 102.066 61.2367 109.518 63.1266L130.061 68.3368C137.632 70.2571 142.991 67.2894 145.027 60.0971L151.812 36.1305C153.815 29.0542 150.768 23.8551 143.196 21.9348Z" fill="#4624E0"/>
</g>
<path d="M66.7384 73.3019L36.5862 65.6546C25.6492 62.8807 17.5653 67.3271 14.6251 77.7135L4.66702 112.891C1.67862 123.447 6.36918 130.988 17.3062 133.762L47.4585 141.409C58.5717 144.228 66.4371 139.872 69.4255 129.315L79.3836 94.1378C82.3238 83.7514 77.8517 76.1205 66.7384 73.3019Z" fill="url(#paint1_linear_1650_32428)"/>
<g opacity="0.5" filter="url(#filter1_f_1650_32428)">
<path d="M58.8584 82.9348L38.3154 77.7246C30.8639 75.8347 25.3563 78.8641 23.3531 85.9404L16.5686 109.907C14.5326 117.099 17.7283 122.237 25.1798 124.127L45.7228 129.337C53.2944 131.257 58.6531 128.289 60.6892 121.097L67.4737 97.1305C69.4769 90.0542 66.43 84.8551 58.8584 82.9348Z" fill="#4624E0"/>
</g>
<path d="M71.9258 162.236L49.4537 156.537C41.3026 154.469 35.2778 157.783 33.0865 165.524L25.6649 191.741C23.4377 199.609 26.9335 205.229 35.0846 207.296L57.5567 212.995C65.8393 215.096 71.7013 211.85 73.9285 203.982L81.3501 177.765C83.5414 170.024 80.2084 164.337 71.9258 162.236Z" fill="url(#paint2_linear_1650_32428)"/>
<g opacity="0.5" filter="url(#filter2_f_1650_32428)">
<path d="M66.0524 169.415L50.742 165.532C45.1885 164.124 41.0838 166.382 39.5908 171.655L34.5344 189.517C33.017 194.878 35.3987 198.707 40.9522 200.115L56.2626 203.998C61.9056 205.429 65.8994 203.218 67.4169 197.857L72.4733 179.995C73.9662 174.721 71.6954 170.847 66.0524 169.415Z" fill="#4624E0"/>
</g>
<path d="M384.216 44.5878L363.367 39.3003C355.805 37.3823 350.216 40.4567 348.183 47.6381L341.298 71.9607C339.231 79.2598 342.475 84.4734 350.037 86.3913L370.885 91.6789C378.569 93.6278 384.007 90.616 386.073 83.3169L392.959 58.9943C394.992 51.8129 391.9 46.5367 384.216 44.5878Z" fill="url(#paint3_linear_1650_32428)"/>
<g opacity="0.5" filter="url(#filter3_f_1650_32428)">
<path d="M378.77 51.2481L364.566 47.6456C359.414 46.3389 355.606 48.4336 354.221 53.3263L349.53 69.8975C348.122 74.8705 350.331 78.4225 355.484 79.7293L369.688 83.3317C374.923 84.6595 378.628 82.6076 380.036 77.6346L384.727 61.0634C386.112 56.1707 384.005 52.5759 378.77 51.2481Z" fill="#4624E0"/>
</g>
<path d="M402.699 115.302L372.547 107.655C361.61 104.881 353.526 109.327 350.586 119.713L340.628 154.891C337.64 165.447 342.33 172.988 353.267 175.762L383.419 183.409C394.533 186.228 402.398 181.872 405.386 171.315L415.345 136.138C418.285 125.751 413.813 118.12 402.699 115.302Z" fill="url(#paint4_linear_1650_32428)"/>
<g opacity="0.5" filter="url(#filter4_f_1650_32428)">
<path d="M394.821 124.935L374.278 119.725C366.827 117.835 361.319 120.864 359.316 127.94L352.531 151.907C350.495 159.099 353.691 164.237 361.143 166.127L381.686 171.337C389.257 173.257 394.616 170.289 396.652 163.097L403.437 139.13C405.44 132.054 402.393 126.855 394.821 124.935Z" fill="#4624E0"/>
</g>
<path d="M151.256 97.3019L121.104 89.6546C110.167 86.8807 102.083 91.3271 99.1427 101.713L89.1846 136.891C86.1962 147.447 90.8868 154.988 101.824 157.762L131.976 165.409C143.089 168.228 150.955 163.872 153.943 153.315L163.901 118.138C166.841 107.751 162.369 100.12 151.256 97.3019Z" fill="url(#paint5_linear_1650_32428)"/>
<g opacity="0.5" filter="url(#filter5_f_1650_32428)">
<path d="M143.378 106.935L122.835 101.725C115.383 99.8347 109.876 102.864 107.873 109.94L101.088 133.907C99.0521 141.099 102.248 146.237 109.699 148.127L130.242 153.337C137.814 155.257 143.173 152.289 145.209 145.097L151.993 121.13C153.996 114.054 150.95 108.855 143.378 106.935Z" fill="#4624E0"/>
</g>
<path d="M151.256 182.302L121.104 174.655C110.167 171.881 102.083 176.327 99.1427 186.713L89.1846 221.891C86.1962 232.447 90.8868 239.988 101.824 242.762L131.976 250.409C143.089 253.228 150.955 248.872 153.943 238.315L163.901 203.138C166.841 192.751 162.369 185.12 151.256 182.302Z" fill="url(#paint6_linear_1650_32428)"/>
<g opacity="0.5" filter="url(#filter6_f_1650_32428)">
<path d="M143.378 191.935L122.835 186.725C115.383 184.835 109.876 187.864 107.873 194.94L101.088 218.907C99.0521 226.099 102.248 231.237 109.699 233.127L130.242 238.337C137.814 240.257 143.173 237.289 145.209 230.097L151.993 206.13C153.996 199.054 150.95 193.855 143.378 191.935Z" fill="#4624E0"/>
</g>
<path d="M234.719 12.3019L204.567 4.65456C193.63 1.88068 185.546 6.32715 182.606 16.7135L172.647 51.8907C169.659 62.4473 174.35 69.9877 185.287 72.7616L215.439 80.4089C226.552 83.2275 234.418 78.8716 237.406 68.315L247.364 33.1378C250.304 22.7514 245.832 15.1205 234.719 12.3019Z" fill="url(#paint7_linear_1650_32428)"/>
<g opacity="0.5" filter="url(#filter7_f_1650_32428)">
<path d="M226.839 21.9348L206.296 16.7246C198.844 14.8347 193.337 17.8641 191.334 24.9404L184.549 48.9071C182.513 56.0994 185.709 61.2367 193.16 63.1266L213.703 68.3368C221.275 70.2571 226.634 67.2894 228.67 60.0971L235.454 36.1305C237.457 29.0542 234.41 23.8551 226.839 21.9348Z" fill="#4624E0"/>
</g>
<path d="M234.901 97.3019L204.748 89.6546C193.811 86.8807 185.727 91.3271 182.787 101.713L172.829 136.891C169.841 147.447 174.531 154.988 185.468 157.762L215.621 165.409C226.734 168.228 234.599 163.872 237.588 153.315L247.546 118.138C250.486 107.751 246.014 100.12 234.901 97.3019Z" fill="url(#paint8_linear_1650_32428)"/>
<g opacity="0.5" filter="url(#filter8_f_1650_32428)">
<path d="M227.021 106.935L206.478 101.725C199.026 99.8347 193.518 102.864 191.515 109.94L184.731 133.907C182.695 141.099 185.89 146.237 193.342 148.127L213.885 153.337C221.456 155.257 226.815 152.289 228.851 145.097L235.636 121.13C237.639 114.054 234.592 108.855 227.021 106.935Z" fill="#4624E0"/>
</g>
<path d="M234.901 182.302L204.748 174.655C193.811 171.881 185.727 176.327 182.787 186.713L172.829 221.891C169.841 232.447 174.531 239.988 185.468 242.762L215.621 250.409C226.734 253.228 234.599 248.872 237.588 238.315L247.546 203.138C250.486 192.751 246.014 185.12 234.901 182.302Z" fill="url(#paint9_linear_1650_32428)"/>
<g opacity="0.5" filter="url(#filter9_f_1650_32428)">
<path d="M227.021 191.935L206.478 186.725C199.026 184.835 193.518 187.864 191.515 194.94L184.731 218.907C182.695 226.099 185.89 231.237 193.342 233.127L213.885 238.337C221.456 240.257 226.815 237.289 228.851 230.097L235.636 206.13C237.639 199.054 234.592 193.855 227.021 191.935Z" fill="#4624E0"/>
</g>
<path d="M318.363 12.3019L288.211 4.65456C277.274 1.88068 269.19 6.32715 266.25 16.7135L256.292 51.8907C253.304 62.4473 257.994 69.9877 268.931 72.7616L299.083 80.4089C310.197 83.2275 318.062 78.8716 321.051 68.315L331.009 33.1378C333.949 22.7514 329.477 15.1205 318.363 12.3019Z" fill="url(#paint10_linear_1650_32428)"/>
<g opacity="0.5" filter="url(#filter10_f_1650_32428)">
<path d="M310.485 21.9348L289.942 16.7246C282.491 14.8347 276.983 17.8641 274.98 24.9404L268.196 48.9071C266.16 56.0994 269.355 61.2367 276.807 63.1266L297.35 68.3368C304.921 70.2571 310.28 67.2894 312.316 60.0971L319.101 36.1305C321.104 29.0542 318.057 23.8551 310.485 21.9348Z" fill="#4624E0"/>
</g>
<path d="M318.543 97.3019L288.391 89.6546C277.454 86.8807 269.37 91.3271 266.43 101.713L256.472 136.891C253.483 147.447 258.174 154.988 269.111 157.762L299.263 165.409C310.376 168.228 318.242 163.872 321.23 153.315L331.188 118.138C334.129 107.751 329.656 100.12 318.543 97.3019Z" fill="url(#paint11_linear_1650_32428)"/>
<g opacity="0.5" filter="url(#filter11_f_1650_32428)">
<path d="M310.665 106.935L290.122 101.725C282.671 99.8347 277.163 102.864 275.16 109.94L268.375 133.907C266.339 141.099 269.535 146.237 276.986 148.127L297.529 153.337C305.101 155.257 310.46 152.289 312.496 145.097L319.28 121.13C321.284 114.054 318.237 108.855 310.665 106.935Z" fill="#4624E0"/>
</g>
<path d="M318.543 182.302L288.391 174.655C277.454 171.881 269.37 176.327 266.43 186.713L256.472 221.891C253.483 232.447 258.174 239.988 269.111 242.762L299.263 250.409C310.376 253.228 318.242 248.872 321.23 238.315L331.188 203.138C334.129 192.751 329.656 185.12 318.543 182.302Z" fill="url(#paint12_linear_1650_32428)"/>
<g opacity="0.5" filter="url(#filter12_f_1650_32428)">
<path d="M310.665 191.935L290.122 186.725C282.671 184.835 277.163 187.864 275.16 194.94L268.375 218.907C266.339 226.099 269.535 231.237 276.986 233.127L297.529 238.337C305.101 240.257 310.46 237.289 312.496 230.097L319.28 206.13C321.284 199.054 318.237 193.855 310.665 191.935Z" fill="#4624E0"/>
</g>
</g>
<path d="M246.311 89.3019L217.77 81.6546C207.418 78.8807 199.766 83.3271 196.983 93.7135L187.558 128.891C184.729 139.447 189.169 146.988 199.521 149.762L228.061 157.409C238.581 160.228 246.025 155.872 248.854 145.315L258.28 110.138C261.063 99.7514 256.83 92.1205 246.311 89.3019Z" fill="url(#paint13_linear_1650_32428)"/>
<g opacity="0.5" filter="url(#filter13_f_1650_32428)">
<path d="M238.852 98.9348L219.408 93.7246C212.355 91.8347 207.141 94.8641 205.245 101.94L198.824 125.907C196.896 133.099 199.921 138.237 206.974 140.127L226.419 145.337C233.586 147.257 238.658 144.289 240.585 137.097L247.007 113.13C248.903 106.054 246.019 100.855 238.852 98.9348Z" fill="#4624E0"/>
</g>
<g filter="url(#filter14_b_1650_32428)">
<mask id="path-29-outside-1_1650_32428" maskUnits="userSpaceOnUse" x="156.312" y="95.1396" width="84" height="84" fill="black">
<rect fill="white" x="156.312" y="95.1396" width="84" height="84"/>
<path d="M215.48 96.1396H180.312C166.561 96.1396 157.312 105.794 157.312 120.153V153.293C157.312 167.612 166.561 177.265 180.312 177.265H215.48C229.231 177.265 238.438 167.612 238.438 153.293V120.153C238.438 105.794 229.231 96.1396 215.48 96.1396Z"/>
</mask>
<path d="M215.48 96.1396H180.312C166.561 96.1396 157.312 105.794 157.312 120.153V153.293C157.312 167.612 166.561 177.265 180.312 177.265H215.48C229.231 177.265 238.438 167.612 238.438 153.293V120.153C238.438 105.794 229.231 96.1396 215.48 96.1396Z" fill="#4624E0" fill-opacity="0.35"/>
<path d="M215.48 97.1396C216.032 97.1396 216.48 96.6919 216.48 96.1396C216.48 95.5874 216.032 95.1396 215.48 95.1396V97.1396ZM215.48 95.1396C214.927 95.1396 214.48 95.5874 214.48 96.1396C214.48 96.6919 214.927 97.1396 215.48 97.1396V95.1396ZM215.48 95.1396H180.312V97.1396H215.48V95.1396ZM180.312 95.1396C173.193 95.1396 167.173 97.6439 162.933 102.07C158.698 106.492 156.312 112.756 156.312 120.153H158.312C158.312 113.19 160.552 107.448 164.378 103.453C168.2 99.4624 173.679 97.1396 180.312 97.1396V95.1396ZM156.312 120.153V153.293H158.312V120.153H156.312ZM156.312 153.293C156.312 160.67 158.698 166.924 162.934 171.341C167.173 175.761 173.194 178.265 180.312 178.265V176.265C173.679 176.265 168.2 173.943 164.377 169.957C160.551 165.967 158.312 160.235 158.312 153.293H156.312ZM180.312 178.265H215.48V176.265H180.312V178.265ZM215.48 178.265C222.598 178.265 228.609 175.761 232.838 171.34C237.064 166.923 239.438 160.668 239.438 153.293H237.438C237.438 160.236 235.209 165.968 231.393 169.957C227.581 173.943 222.112 176.265 215.48 176.265V178.265ZM239.438 153.293V120.153H237.438V153.293H239.438ZM239.438 120.153C239.438 112.758 237.064 106.493 232.839 102.071C228.609 97.6441 222.598 95.1396 215.48 95.1396V97.1396C222.112 97.1396 227.58 99.4622 231.393 103.452C235.209 107.447 237.438 113.189 237.438 120.153H239.438Z" fill="url(#paint14_linear_1650_32428)" mask="url(#path-29-outside-1_1650_32428)"/>
</g>
<g filter="url(#filter15_bd_1650_32428)">
<mask id="path-31-inside-2_1650_32428" fill="white">
<path d="M193.06 149.877C192.151 149.877 191.242 149.532 190.549 148.839L180.923 139.213C179.536 137.826 179.536 135.579 180.923 134.195C182.311 132.808 184.554 132.804 185.941 134.191L193.06 141.31L209.804 124.566C211.191 123.179 213.434 123.179 214.822 124.566C216.209 125.953 216.209 128.2 214.822 129.588L195.571 148.839C194.877 149.532 193.968 149.877 193.06 149.877Z"/>
</mask>
<path d="M193.06 149.877C192.151 149.877 191.242 149.532 190.549 148.839L180.923 139.213C179.536 137.826 179.536 135.579 180.923 134.195C182.311 132.808 184.554 132.804 185.941 134.191L193.06 141.31L209.804 124.566C211.191 123.179 213.434 123.179 214.822 124.566C216.209 125.953 216.209 128.2 214.822 129.588L195.571 148.839C194.877 149.532 193.968 149.877 193.06 149.877Z" fill="url(#paint15_linear_1650_32428)"/>
<path d="M180.923 134.195L181.064 134.337L181.065 134.337L180.923 134.195ZM193.06 141.31L192.918 141.452L193.06 141.593L193.201 141.452L193.06 141.31ZM214.822 129.588L214.68 129.446L214.822 129.588ZM195.571 148.839L195.712 148.98L195.571 148.839ZM193.06 149.677C192.202 149.677 191.345 149.352 190.69 148.697L190.407 148.98C191.14 149.713 192.1 150.077 193.06 150.077V149.677ZM190.69 148.697L181.065 139.072L180.782 139.355L190.407 148.98L190.69 148.697ZM181.065 139.072C179.755 137.762 179.756 135.642 181.064 134.337L180.782 134.054C179.316 135.515 179.317 137.889 180.782 139.355L181.065 139.072ZM181.065 134.337C182.374 133.027 184.491 133.024 185.799 134.333L186.082 134.05C184.617 132.584 182.247 132.589 180.782 134.054L181.065 134.337ZM185.799 134.333L192.918 141.452L193.201 141.169L186.082 134.05L185.799 134.333ZM193.201 141.452L209.945 124.707L209.663 124.424L192.918 141.169L193.201 141.452ZM209.945 124.707C211.255 123.398 213.371 123.398 214.68 124.707L214.963 124.424C213.498 122.959 211.128 122.959 209.663 124.424L209.945 124.707ZM214.68 124.707C215.989 126.016 215.989 128.137 214.68 129.446L214.963 129.729C216.428 128.264 216.428 125.89 214.963 124.424L214.68 124.707ZM214.68 129.446L195.429 148.697L195.712 148.98L214.963 129.729L214.68 129.446ZM195.429 148.697C194.775 149.352 193.918 149.677 193.06 149.677V150.077C194.019 150.077 194.979 149.713 195.712 148.98L195.429 148.697Z" fill="url(#paint16_linear_1650_32428)" fill-opacity="0.5" mask="url(#path-31-inside-2_1650_32428)"/>
</g>
<defs>
<filter id="filter0_f_1650_32428" x="86.3047" y="2.17383" width="80.1074" height="80.7344" filterUnits="userSpaceOnUse" color-interpolation-filters="sRGB">
<feFlood flood-opacity="0" result="BackgroundImageFix"/>
<feBlend mode="normal" in="SourceGraphic" in2="BackgroundImageFix" result="shape"/>
<feGaussianBlur stdDeviation="7" result="effect1_foregroundBlur_1650_32428"/>
</filter>
<filter id="filter1_f_1650_32428" x="1.9668" y="63.1738" width="80.1074" height="80.7344" filterUnits="userSpaceOnUse" color-interpolation-filters="sRGB">
<feFlood flood-opacity="0" result="BackgroundImageFix"/>
<feBlend mode="normal" in="SourceGraphic" in2="BackgroundImageFix" result="shape"/>
<feGaussianBlur stdDeviation="7" result="effect1_foregroundBlur_1650_32428"/>
</filter>
<filter id="filter2_f_1650_32428" x="23.6519" y="154.688" width="59.702" height="60.1698" filterUnits="userSpaceOnUse" color-interpolation-filters="sRGB">
<feFlood flood-opacity="0" result="BackgroundImageFix"/>
<feBlend mode="normal" in="SourceGraphic" in2="BackgroundImageFix" result="shape"/>
<feGaussianBlur stdDeviation="5.217" result="effect1_foregroundBlur_1650_32428"/>
</filter>
<filter id="filter3_f_1650_32428" x="339.433" y="37.5847" width="55.3893" height="55.8219" filterUnits="userSpaceOnUse" color-interpolation-filters="sRGB">
<feFlood flood-opacity="0" result="BackgroundImageFix"/>
<feBlend mode="normal" in="SourceGraphic" in2="BackgroundImageFix" result="shape"/>
<feGaussianBlur stdDeviation="4.83999" result="effect1_foregroundBlur_1650_32428"/>
</filter>
<filter id="filter4_f_1650_32428" x="337.93" y="105.174" width="80.1074" height="80.7344" filterUnits="userSpaceOnUse" color-interpolation-filters="sRGB">
<feFlood flood-opacity="0" result="BackgroundImageFix"/>
<feBlend mode="normal" in="SourceGraphic" in2="BackgroundImageFix" result="shape"/>
<feGaussianBlur stdDeviation="7" result="effect1_foregroundBlur_1650_32428"/>
</filter>
<filter id="filter5_f_1650_32428" x="86.4863" y="87.1738" width="80.1074" height="80.7344" filterUnits="userSpaceOnUse" color-interpolation-filters="sRGB">
<feFlood flood-opacity="0" result="BackgroundImageFix"/>
<feBlend mode="normal" in="SourceGraphic" in2="BackgroundImageFix" result="shape"/>
<feGaussianBlur stdDeviation="7" result="effect1_foregroundBlur_1650_32428"/>
</filter>
<filter id="filter6_f_1650_32428" x="86.4863" y="172.174" width="80.1074" height="80.7344" filterUnits="userSpaceOnUse" color-interpolation-filters="sRGB">
<feFlood flood-opacity="0" result="BackgroundImageFix"/>
<feBlend mode="normal" in="SourceGraphic" in2="BackgroundImageFix" result="shape"/>
<feGaussianBlur stdDeviation="7" result="effect1_foregroundBlur_1650_32428"/>
</filter>
<filter id="filter7_f_1650_32428" x="169.947" y="2.17383" width="80.1074" height="80.7344" filterUnits="userSpaceOnUse" color-interpolation-filters="sRGB">
<feFlood flood-opacity="0" result="BackgroundImageFix"/>
<feBlend mode="normal" in="SourceGraphic" in2="BackgroundImageFix" result="shape"/>
<feGaussianBlur stdDeviation="7" result="effect1_foregroundBlur_1650_32428"/>
</filter>
<filter id="filter8_f_1650_32428" x="170.129" y="87.1738" width="80.1074" height="80.7344" filterUnits="userSpaceOnUse" color-interpolation-filters="sRGB">
<feFlood flood-opacity="0" result="BackgroundImageFix"/>
<feBlend mode="normal" in="SourceGraphic" in2="BackgroundImageFix" result="shape"/>
<feGaussianBlur stdDeviation="7" result="effect1_foregroundBlur_1650_32428"/>
</filter>
<filter id="filter9_f_1650_32428" x="170.129" y="172.174" width="80.1074" height="80.7344" filterUnits="userSpaceOnUse" color-interpolation-filters="sRGB">
<feFlood flood-opacity="0" result="BackgroundImageFix"/>
<feBlend mode="normal" in="SourceGraphic" in2="BackgroundImageFix" result="shape"/>
<feGaussianBlur stdDeviation="7" result="effect1_foregroundBlur_1650_32428"/>
</filter>
<filter id="filter10_f_1650_32428" x="253.594" y="2.17383" width="80.1074" height="80.7344" filterUnits="userSpaceOnUse" color-interpolation-filters="sRGB">
<feFlood flood-opacity="0" result="BackgroundImageFix"/>
<feBlend mode="normal" in="SourceGraphic" in2="BackgroundImageFix" result="shape"/>
<feGaussianBlur stdDeviation="7" result="effect1_foregroundBlur_1650_32428"/>
</filter>
<filter id="filter11_f_1650_32428" x="253.773" y="87.1738" width="80.1074" height="80.7344" filterUnits="userSpaceOnUse" color-interpolation-filters="sRGB">
<feFlood flood-opacity="0" result="BackgroundImageFix"/>
<feBlend mode="normal" in="SourceGraphic" in2="BackgroundImageFix" result="shape"/>
<feGaussianBlur stdDeviation="7" result="effect1_foregroundBlur_1650_32428"/>
</filter>
<filter id="filter12_f_1650_32428" x="253.773" y="172.174" width="80.1074" height="80.7344" filterUnits="userSpaceOnUse" color-interpolation-filters="sRGB">
<feFlood flood-opacity="0" result="BackgroundImageFix"/>
<feBlend mode="normal" in="SourceGraphic" in2="BackgroundImageFix" result="shape"/>
<feGaussianBlur stdDeviation="7" result="effect1_foregroundBlur_1650_32428"/>
</filter>
<filter id="filter13_f_1650_32428" x="184.254" y="79.1738" width="77.3203" height="80.7344" filterUnits="userSpaceOnUse" color-interpolation-filters="sRGB">
<feFlood flood-opacity="0" result="BackgroundImageFix"/>
<feBlend mode="normal" in="SourceGraphic" in2="BackgroundImageFix" result="shape"/>
<feGaussianBlur stdDeviation="7" result="effect1_foregroundBlur_1650_32428"/>
</filter>
<filter id="filter14_b_1650_32428" x="132.312" y="71.1396" width="131.125" height="131.126" filterUnits="userSpaceOnUse" color-interpolation-filters="sRGB">
<feFlood flood-opacity="0" result="BackgroundImageFix"/>
<feGaussianBlur in="BackgroundImageFix" stdDeviation="12"/>
<feComposite in2="SourceAlpha" operator="in" result="effect1_backgroundBlur_1650_32428"/>
<feBlend mode="normal" in="SourceGraphic" in2="effect1_backgroundBlur_1650_32428" result="shape"/>
</filter>
<filter id="filter15_bd_1650_32428" x="164.883" y="108.525" width="65.9785" height="56.3516" filterUnits="userSpaceOnUse" color-interpolation-filters="sRGB">
<feFlood flood-opacity="0" result="BackgroundImageFix"/>
<feGaussianBlur in="BackgroundImageFix" stdDeviation="7.5"/>
<feComposite in2="SourceAlpha" operator="in" result="effect1_backgroundBlur_1650_32428"/>
<feColorMatrix in="SourceAlpha" type="matrix" values="0 0 0 0 0 0 0 0 0 0 0 0 0 0 0 0 0 0 127 0" result="hardAlpha"/>
<feOffset dx="5" dy="5"/>
<feGaussianBlur stdDeviation="5"/>
<feColorMatrix type="matrix" values="0 0 0 0 0.27451 0 0 0 0 0.141176 0 0 0 0 0.878431 0 0 0 0.5 0"/>
<feBlend mode="normal" in2="effect1_backgroundBlur_1650_32428" result="effect2_dropShadow_1650_32428"/>
<feBlend mode="normal" in="SourceGraphic" in2="effect2_dropShadow_1650_32428" result="shape"/>
</filter>
<linearGradient id="paint0_linear_1650_32428" x1="168.376" y1="16.6899" x2="104.637" y2="57.9032" gradientUnits="userSpaceOnUse">
<stop stop-color="#C4B9F7"/>
<stop offset="1" stop-color="#4624E0"/>
</linearGradient>
<linearGradient id="paint1_linear_1650_32428" x1="84.0398" y1="77.6899" x2="20.301" y2="118.903" gradientUnits="userSpaceOnUse">
<stop stop-color="#C4B9F7"/>
<stop offset="1" stop-color="#4624E0"/>
</linearGradient>
<linearGradient id="paint2_linear_1650_32428" x1="84.8202" y1="165.506" x2="37.3167" y2="196.222" gradientUnits="userSpaceOnUse">
<stop stop-color="#C4B9F7"/>
<stop offset="1" stop-color="#4624E0"/>
</linearGradient>
<linearGradient id="paint3_linear_1650_32428" x1="396.178" y1="47.6218" x2="352.107" y2="76.1178" gradientUnits="userSpaceOnUse">
<stop stop-color="#C4B9F7"/>
<stop offset="1" stop-color="#4624E0"/>
</linearGradient>
<linearGradient id="paint4_linear_1650_32428" x1="420.001" y1="119.69" x2="356.262" y2="160.903" gradientUnits="userSpaceOnUse">
<stop stop-color="#C4B9F7"/>
<stop offset="1" stop-color="#4624E0"/>
</linearGradient>
<linearGradient id="paint5_linear_1650_32428" x1="168.557" y1="101.69" x2="104.819" y2="142.903" gradientUnits="userSpaceOnUse">
<stop stop-color="#C4B9F7"/>
<stop offset="1" stop-color="#4624E0"/>
</linearGradient>
<linearGradient id="paint6_linear_1650_32428" x1="168.557" y1="186.69" x2="104.819" y2="227.903" gradientUnits="userSpaceOnUse">
<stop stop-color="#C4B9F7"/>
<stop offset="1" stop-color="#4624E0"/>
</linearGradient>
<linearGradient id="paint7_linear_1650_32428" x1="252.02" y1="16.6899" x2="188.282" y2="57.9032" gradientUnits="userSpaceOnUse">
<stop stop-color="#C4B9F7"/>
<stop offset="1" stop-color="#4624E0"/>
</linearGradient>
<linearGradient id="paint8_linear_1650_32428" x1="252.202" y1="101.69" x2="188.463" y2="142.903" gradientUnits="userSpaceOnUse">
<stop stop-color="#C4B9F7"/>
<stop offset="1" stop-color="#4624E0"/>
</linearGradient>
<linearGradient id="paint9_linear_1650_32428" x1="252.202" y1="186.69" x2="188.463" y2="227.903" gradientUnits="userSpaceOnUse">
<stop stop-color="#C4B9F7"/>
<stop offset="1" stop-color="#4624E0"/>
</linearGradient>
<linearGradient id="paint10_linear_1650_32428" x1="335.665" y1="16.6899" x2="271.926" y2="57.9032" gradientUnits="userSpaceOnUse">
<stop stop-color="#C4B9F7"/>
<stop offset="1" stop-color="#4624E0"/>
</linearGradient>
<linearGradient id="paint11_linear_1650_32428" x1="335.844" y1="101.69" x2="272.106" y2="142.903" gradientUnits="userSpaceOnUse">
<stop stop-color="#C4B9F7"/>
<stop offset="1" stop-color="#4624E0"/>
</linearGradient>
<linearGradient id="paint12_linear_1650_32428" x1="335.844" y1="186.69" x2="272.106" y2="227.903" gradientUnits="userSpaceOnUse">
<stop stop-color="#C4B9F7"/>
<stop offset="1" stop-color="#4624E0"/>
</linearGradient>
<linearGradient id="paint13_linear_1650_32428" x1="262.687" y1="93.6899" x2="200.446" y2="131.783" gradientUnits="userSpaceOnUse">
<stop stop-color="#C4B9F7"/>
<stop offset="1" stop-color="#4624E0"/>
</linearGradient>
<linearGradient id="paint14_linear_1650_32428" x1="170.226" y1="105.591" x2="221.976" y2="169.684" gradientUnits="userSpaceOnUse">
<stop stop-color="white" stop-opacity="0.25"/>
<stop offset="1" stop-color="white" stop-opacity="0"/>
</linearGradient>
<linearGradient id="paint15_linear_1650_32428" x1="213.311" y1="128.284" x2="173.27" y2="130.066" gradientUnits="userSpaceOnUse">
<stop stop-color="white"/>
<stop offset="1" stop-color="white" stop-opacity="0.2"/>
</linearGradient>
<linearGradient id="paint16_linear_1650_32428" x1="183.759" y1="132.365" x2="214.309" y2="132.595" gradientUnits="userSpaceOnUse">
<stop stop-color="white"/>
<stop offset="1" stop-color="white" stop-opacity="0"/>
</linearGradient>
</defs>
</svg>
