<svg width="20" height="20" viewBox="0 0 20 20" fill="none" xmlns="http://www.w3.org/2000/svg">
<path d="M6.67083 1.66602C4.28691 1.66602 2.17175 3.34577 1.69683 5.65035C1.60408 6.10068 1.89716 6.54726 2.34791 6.64001C2.79866 6.73268 3.24475 6.43926 3.33749 5.98893C3.65366 4.45443 5.08175 3.33268 6.67083 3.33268C7.13108 3.33268 7.50416 2.9591 7.50416 2.49935C7.50416 2.0396 7.13108 1.66602 6.67083 1.66602ZM13.3375 1.66602C12.8772 1.66602 12.5042 2.0391 12.5042 2.49935C12.5042 2.9596 12.8772 3.33268 13.3375 3.33268C14.9284 3.33268 16.3567 4.45035 16.6708 5.98893C16.7629 6.43985 17.2095 6.73201 17.6604 6.64001C18.1113 6.54793 18.4035 6.10135 18.3115 5.65035C17.8396 3.3396 15.7242 1.66602 13.3375 1.66602ZM10.0042 3.33268C5.86199 3.33268 2.50416 6.69051 2.50416 10.8327C2.50416 12.5915 3.13099 14.2412 4.14483 15.5202L2.76458 16.9003C2.43916 17.2258 2.43916 17.7728 2.76458 18.0983C3.09 18.4238 3.61099 18.4238 3.93649 18.0983L5.31666 16.692C6.59566 17.7058 8.24533 18.3327 10.0042 18.3327C11.763 18.3327 13.4127 17.7058 14.6917 16.692L16.0979 18.0983C16.4233 18.4238 16.9443 18.3977 17.2698 18.0723C17.5952 17.7468 17.5692 17.2258 17.2437 16.9003L15.8635 15.4942C16.8623 14.2833 17.5042 12.5915 17.5042 10.8327C17.5042 6.69051 14.1463 3.33268 10.0042 3.33268ZM10.0042 6.66601C10.4644 6.66601 10.8375 7.0391 10.8375 7.49935V10.8327C10.8375 11.2929 10.4644 11.666 10.0042 11.666H6.67083C6.21058 11.666 5.8375 11.2929 5.8375 10.8327C5.8375 10.3724 6.21058 9.99935 6.67083 9.99935H9.17083V7.49935C9.17083 7.0391 9.54391 6.66601 10.0042 6.66601Z" fill="#BFB8DE"/>
</svg>
