<svg width="20" height="20" viewBox="0 0 20 20" fill="none" xmlns="http://www.w3.org/2000/svg">
<g clip-path="url(#clip0_1315_28387)">
<path fill-rule="evenodd" clip-rule="evenodd" d="M0 0H20V20H0V0Z" fill="#F7DF1E"/>
<path fill-rule="evenodd" clip-rule="evenodd" d="M4.00003 12.5139L5.36047 11.7128C5.62292 12.1656 5.86167 12.5487 6.43435 12.5487C6.9833 12.5487 7.32939 12.3397 7.32939 11.527V6H9V11.55C9 13.2337 7.98574 14 6.50597 14C5.16954 14 4.39378 13.3265 4 12.5138" fill="black"/>
<path fill-rule="evenodd" clip-rule="evenodd" d="M10 12.3587L11.1703 11.6012C11.4784 12.1636 11.8789 12.5768 12.5872 12.5768C13.1828 12.5768 13.5626 12.2439 13.5626 11.7848C13.5626 11.2339 13.1725 11.0387 12.5154 10.7174L12.1561 10.5452C11.1191 10.0517 10.4312 9.43191 10.4312 8.12342C10.4312 6.91826 11.2525 6 12.5359 6C13.4497 6 14.1068 6.35584 14.579 7.28556L13.4599 8.08895C13.2135 7.59545 12.9466 7.40036 12.536 7.40036C12.115 7.40036 11.848 7.69878 11.848 8.08895C11.848 8.57103 12.115 8.7662 12.731 9.06464L13.0903 9.2368C14.3121 9.8222 15 10.419 15 11.7618C15 13.2081 13.9836 14 12.6181 14C11.2834 14 10.4209 13.2884 10 12.3587" fill="black"/>
</g>
<defs>
<clipPath id="clip0_1315_28387">
<rect width="20" height="20" rx="10" fill="white"/>
</clipPath>
</defs>
</svg>
