<svg width="18" height="18" viewBox="0 0 18 18" fill="none" xmlns="http://www.w3.org/2000/svg">
<g clip-path="url(#clip0_1315_28384)">
<path d="M8.91361 0.0703125C4.35509 0.0703128 4.63975 2.04716 4.63975 2.04716L4.64483 4.09516H8.99492V4.71006H2.917C2.917 4.71006 0 4.37925 0 8.97884C-3.25125e-07 13.5784 2.54602 13.4153 2.54602 13.4153H4.0655V11.2809C4.0655 11.2809 3.9836 8.73491 6.57086 8.73491H10.8854C10.8854 8.73491 13.3094 8.77409 13.3094 6.39216V2.45371C13.3094 2.45371 13.6775 0.0703125 8.91361 0.0703125ZM6.51496 1.4475C6.94776 1.4475 7.29757 1.79731 7.29757 2.23011C7.29757 2.66291 6.94776 3.01272 6.51496 3.01272C6.08216 3.01272 5.73235 2.66291 5.73235 2.23011C5.73235 1.79731 6.08216 1.4475 6.51496 1.4475Z" fill="url(#paint0_linear_1315_28384)"/>
<path d="M9.04304 17.9336C13.6016 17.9336 13.3169 15.9568 13.3169 15.9568L13.3118 13.9088H8.96173V13.2939H15.0396C15.0396 13.2939 17.9566 13.6247 17.9566 9.02508C17.9566 4.42549 15.4106 4.58861 15.4106 4.58861H13.8911V6.72299C13.8911 6.72299 13.9731 9.26901 11.3858 9.26901H7.07127C7.07127 9.26901 4.64722 9.22983 4.64722 11.6118V15.5502C4.64722 15.5502 4.27918 17.9336 9.04304 17.9336ZM11.4417 16.5564C11.0089 16.5564 10.6591 16.2066 10.6591 15.7738C10.6591 15.341 11.0089 14.9912 11.4417 14.9912C11.8745 14.9912 12.2243 15.341 12.2243 15.7738C12.2243 16.2066 11.8745 16.5564 11.4417 16.5564Z" fill="url(#paint1_linear_1315_28384)"/>
</g>
<defs>
<linearGradient id="paint0_linear_1315_28384" x1="1.72567" y1="1.67706" x2="10.6243" y2="10.487" gradientUnits="userSpaceOnUse">
<stop stop-color="#387EB8"/>
<stop offset="1" stop-color="#366994"/>
</linearGradient>
<linearGradient id="paint1_linear_1315_28384" x1="7.18765" y1="7.33433" x2="16.7439" y2="16.3681" gradientUnits="userSpaceOnUse">
<stop stop-color="#FFE052"/>
<stop offset="1" stop-color="#FFC331"/>
</linearGradient>
<clipPath id="clip0_1315_28384">
<rect width="18" height="18" fill="white"/>
</clipPath>
</defs>
</svg>
