<svg width="19" height="18" viewBox="0 0 19 18" fill="none" xmlns="http://www.w3.org/2000/svg">
<path d="M9.28553 10.8005C10.0311 10.8005 10.6355 10.1961 10.6355 9.45057C10.6355 8.70499 10.0311 8.10059 9.28553 8.10059C8.53995 8.10059 7.93555 8.70499 7.93555 9.45057C7.93555 10.1961 8.53995 10.8005 9.28553 10.8005Z" fill="#61DAFB"/>
<path d="M9.51506 12.2519C14.2178 12.2519 18.0301 10.7963 18.0301 9.00072C18.0301 7.20513 14.2178 5.74951 9.51506 5.74951C4.81232 5.74951 1 7.20513 1 9.00072C1 10.7963 4.81232 12.2519 9.51506 12.2519Z" stroke="#61DAFB" strokeWidth="0.8"/>
<path d="M6.7005 10.6255C9.05187 14.6982 12.2186 17.2719 13.7737 16.3741C15.3287 15.4763 14.6831 11.447 12.3317 7.37426C9.98038 3.30157 6.81362 0.727807 5.25859 1.6256C3.70356 2.5234 4.34913 6.55277 6.7005 10.6255Z" stroke="#61DAFB" strokeWidth="0.8"/>
<path d="M6.69911 7.37403C4.34774 11.4467 3.70218 15.4761 5.2572 16.3739C6.81223 17.2717 9.97899 14.6979 12.3304 10.6252C14.6817 6.55254 15.3273 2.52317 13.7723 1.62537C12.2172 0.727578 9.05048 3.30134 6.69911 7.37403Z" stroke="#61DAFB" strokeWidth="0.8"/>
</svg>
